<?xml version="1.0" encoding="utf-8"?>
<!-- Generator: Adobe Illustrator 23.1.0, SVG Export Plug-In . SVG Version: 6.00 Build 0)  -->
<svg version="1.1" id="Layer_1" xmlns="http://www.w3.org/2000/svg" xmlns:xlink="http://www.w3.org/1999/xlink" x="0px" y="0px"
	 viewBox="0 0 300 84" style="enable-background:new 0 0 300 84;" xml:space="preserve">
<g>
	<path d="M275.5,51.6c-0.2-0.1-0.4-0.2-0.5-0.3"/>
	<path d="M275.5,51.6c-0.2-0.1-0.4-0.2-0.5-0.3"/>
	<path d="M166.5,47.8c-0.3-0.1-1.1-0.4-1.2-1.6c0-0.6,0.4-1.9,2.1-1.7c2.7,0.3,7.5,1.3,10.1,1.7c1,2,2.8,3.6,5,3.7
		c4.2,2.1,11.6,2.9,14.7,2.4c0.8-0.1,1.4-0.9,0.5-1.4c-4.5-2.3-18.2-9.3-28.1-14.3c-4.3-2.2-8.9-6.8-8.2-12.2
		c0.2-2.3,2.7-8.1,8.4-10.8c9.5-4.5,21.6-4.9,26.9-5c6-0.1,27.7,1.2,34.9,7.4c1.4,1.2,2.7,4,1.6,6.1c-2.9,5.6-10.9,7-19.1,8.5
		c-5.5,1-13.2,2.5-17.4,2.9c-1.2,0.1-1.8-1-1.8-1.2c0-0.2,0.5-1.4,1.6-1.6c7.1-1.1,23.5-3.4,29.9-6c4.6-1.9,4.3-4.7,4-5.4
		c-2.1-3.6-10.3-5.9-15.1-6.7c-15.8-2.6-38.7-2-48,6.5c-2.2,2-3.1,5-2.5,8.2c3,7.2,10.2,9.8,16.9,13.1c4.4,2.2,8.4,4.2,16.5,8.3
		c3.1,1.6,2.6,4.2,1.2,5C194.3,56.6,174.3,50.3,166.5,47.8z"/>
	<path d="M297.2,44.5c-2.2-0.9-5,1-7,1.7c-4,1.3-7.3,5-11.8,5c-0.5-0.2-0.9-0.7-0.7-1.3l0.1-0.2c0.8-0.9,2.7-2,2.7-2
		c1.4-0.8,2.7-2.1,3.4-3.2c0.8-1.4,0.4-3.6-3.1-2.4c-3.5,1.3-5.7,3.7-6.4,6.7c-2.2,1.8-4.8,3.1-7.9,3.1c-0.9-0.1-1.2-1.2-1-2.2
		c0.5-2.4,4.9-4.7,4.2-6c-1.6-2.1-2.8,0.8-4.5,0.8c-1.1-0.1,0-3.1,0.1-4.3c0-0.3-0.3-0.9-1.1-0.9c-0.4,0-0.7-0.1-0.7-0.1
		c-2,0.6-2.4,1.7-2.9,3.4c-0.4,1.4-0.8,2.9-1.9,4c-0.1,0.1-0.2,0.2-0.3,0.3c-2.2,1.5-5.4,5-8.9,3.9c-1.5-0.6,2.5-3.9,3.6-5.9
		c0.5-0.5,0.5-1.5-0.3-1.8c-0.9-0.6-1.6,0.2-2.3,0.8c-2.6,3.4-5.9,6-10.4,5.7c-2.6-0.5,2.5-3.5,2.3-5.9c-0.1-0.5-0.7-0.7-1.2-0.6
		c-4.4,2.4-7.9,9.5-13.6,7.7c-1.9-0.6,3.7-3.8,3.3-6.7c-0.1-0.5-0.4-0.8-1-0.6c-3.8,2.6-7.1,6.3-11.5,7.8c-1,0.4-2.5-0.4-2.9,1
		c-0.4,1.4,4.3,0.2,6.1-0.6c1.7-1.3,2.3,1.3,3.5,1.8c0.9,0.4,2.1,0,3-0.2c0.9-0.3,1.2-0.3,2.1-0.7c2.4-0.8,2.6-1.5,4.5-1.9
		c3.2,2.3,7.3,0.2,10.5-0.5c0.6,1,0.6,1.9,1.5,2.8c3,2.2,7.4-1.7,10.8-3.8c0.8-0.5,1.3-0.9,1.8-1.3c1.4-1.1,3.5-1.9,3.9-1l-0.1-0.4
		l0.2,0.5c0,0,0,0,0,0c0-0.1,0-0.1,0-0.1l0,0.2c-0.2,0.9-0.5,1.6-0.7,2.1c-0.7,1.1-0.6,2.6,0.2,3.5c3.1,2.2,6.8,0.2,9.8-1
		c0.7-0.3,1.5-0.7,2.1-0.2l0.5,0.3c1.3,0.9,2.9,2,4.9,0.8c4.9-1.5,9-4.8,14-5.9c1.1-0.2,1.1,1.3,0.7,2.3c-0.4,0.8-1.3,1.6-2.2,1.9
		c-1.5,0.6-3-0.6-4.1-0.3c-0.4,0.5-0.2,0.9,0.3,1.5c0.9,1.1,2.7,1.2,4,1c2.1-0.2,4-2.2,4.6-4.1C298,47.6,298.9,45.3,297.2,44.5z
		 M263.1,41.9c0,0,0.7,1-0.6,1.5C261.5,43.3,262.7,41.5,263.1,41.9z M281.3,44.3c0.2,0.8-1.3,2.4-1.9,2.2l0,0
		c-0.2-0.1-0.4-0.1-0.3-0.3C279.4,44.4,281.3,44.3,281.3,44.3z M277.7,49.8l-0.2,0.4C277.6,50.1,277.7,49.9,277.7,49.8z"/>
	<path d="M158.8,39.4l-9.5,7.6c-2.8,2-7,3.4-10.4,1.4c-1.1-0.9,1.5-3,1.2-4.7c-0.2-0.8-1.3-1-2.1-0.5c-3.3,2.6-6.7,4.8-10.7,5.4
		c-2.7-0.6-0.1-3.9-2.2-5.1c-2.7-0.5-4.1,2-6.6,2.1c-1-1.2,0.1-3.4-1.6-4.1c-3.6-0.5-5.9,2.6-9.1,3.7c-0.6,0.2-1.4,0.7-1.9,1
		c0-0.1,0-0.2,0.1-0.4c0.3-4-0.5-4.9-3.2-5.6c-3.5-1-5.1,1.2-5.1,1.2c-6.4,1.7-8,3.4-9.5,5.2c-0.6,0.5-1.1,1.3-1.4,2.1
		c-2.7-1.5-2.9-4.3-3.3-6.1c3-3.5,6.1-6.1,9.9-9.6c0,0,0.4-0.1,0.4-0.1l2.8-0.5c1.1-0.1,1-1.8-0.4-1.7c0,0-0.1,0-0.2,0
		c0.2-0.2-0.1-0.1-0.1-0.1l11.6-11.4c0,0,2.9-2.8,3.1-4.1c0-0.9-1.7-0.8-1.7-0.8S97.7,25.2,91.8,31l-0.4,0.4
		c-1.5,0.2-3.2,0.5-4.9,0.8l1.1-1.2c2.2-2.7,5.3-4.4,6.4-7.6c-0.2-0.6-1.1-0.7-1.8-0.6c-3.2,2.7-5.9,6.1-8.9,8.9
		c-0.5,0.5-0.9,1-1.3,1.3c-2.7,0.5-4.8,0.8-5,0.8c-0.3,0-1,0.6-0.7,1.2c0.2,0.6,1,0.5,1,0.5l2.8-0.5c-0.2,0.2-0.7,0.7-0.7,0.7
		s-7.1,7.7-11.9,11.4c-0.8,0.6-4,3.1-6,2.7c-2.4-0.6-3.5-4.7-4.6-5.4c-2.5-0.8-3.7,1.7-5.8,1.8c-1.3-1,0.4-2.3,0.1-3.7
		c0-1.3-1.6-1.4-2.5-1.1c-4.9,2.9-8.8,7.1-13.9,9.5c-1.4,0.6-3.2,1.9-4.6,0.5c-0.3-1.4,0.8-2.4,1.7-3.5c7.5-6.6,15.4-13.1,22.9-19.8
		c0.3-0.7,1.8-1.3,0.9-2.2c-0.7-0.9-1.7-0.5-2.6-0.2C40.2,37.2,27.7,49.6,12,55.7C11,56,6.1,57.6,5,55c-1.2-2.7,1.5-6.6,2.9-8.6
		C15.6,36.1,33.7,20,43.4,13.3c5.7-3.9,12-6.7,15.1-6.3c0.6,0.1,3.1,1.1,1.6,3.3C56.5,15.7,45.8,25.6,40,31
		c-0.3,0.3-0.4,1.1-0.2,1.4c0.3,0.4,1.3,0.3,1.5,0c0,0,13.2-10.9,19.4-18.6c2.7-3.3,2.4-5.9,1.9-6.9c-1.3-2.9-7-3.4-14.7,0.6
		C34.7,14.2,14.2,33.8,5.4,45.2c-2.7,3.5-6.2,11.2-0.9,13.4c5.9,2.4,18.2-6.1,21.6-7.9c2.6-1.1,0.9,2.2,2.2,2.9
		c1,0.8,1.9,0.8,3.2,0.5c4.8-1.2,8.6-5,12.8-7.7c1.2-0.6,2.3-1.9,3.1-1.2c0.5,0.5-2.1,3.9-3.1,5.6c-0.1,0.7-0.1,1.3,0.5,1.7
		c0.7,0.1,1.3-0.1,1.8-0.4c2.1-2.5,5.2-5.3,7.8-5c1.3,0.3,1.6,2.6,2.6,3.7c3.6,4.1,8.4-1.3,9.6,0.3c6.1-5,11.1-11.3,17.5-16.3
		l0.4-0.4l4.6-0.7l-1.4,1.2l-15,14.8c-1,0.9-0.2,2.3,0.7,1.5c2.3-1.7,6.2-5.3,8.3-4.3c1.1,0.5,4.5,4,4.5,4c0,0.2,0.3,1.4,1,2.1
		c1,1,2.7,1.5,4.1,1.5c3.3,0,7.3-2.1,8.4-2.7c1.6-0.8,3-1.6,4.1-2.4c2.5-1.4,6.3-3.5,8.7-4.6l2.3-0.6c-0.4,2.4-3.7,4.6-4.4,7.1
		c0.2,0.9,0.9,1.2,1.9,1.1c2.7-2.1,5.3-4.3,8.3-5.6c4-1.7,0.9,3.7,3.4,4.7c1.2,0.5,2.3-0.2,3.3-0.3c2.5-1.2,5.2-3.7,8-4.2
		c-0.1,1.8,0.6,2.7,1.7,3.7c1.4,1.3,4.2,0.7,4.8,1.2c0.7,0.6-1.1,1.8-1.8,2.5c-9.6,7.6-19.9,15.3-29.6,23l0,1.1
		c3.6-2.3,6.6-5,9.5-7.1c12.4-9,23.7-18,36.1-27.2c1.7-1.2,4.4-3.7,4.2-4.4C160,39.2,159.4,39.1,158.8,39.4 M98,49.5
		c-0.9,1.7-5.4,3.4-7.5,2.6c-1.4-0.7-1.2-2.1-1.2-2.1c-0.1-1.1,2.3-4.3,5.3-5.3c0.2,2.2,0.7,3.1,2.9,4.3
		C97.6,49.1,97.9,49.3,98,49.5L98,49.5z M99.8,47.9L99.8,47.9c-2.7,0.1-3.5-2-2.6-3.9c0.7-1.1,0.7-0.8,2.6-1.8
		c1.1-1.1,3.4-0.1,3.7,1.1c0.1,0.3,0.1,0.5,0.2,0.6C103.5,44.8,102.7,47.9,99.8,47.9z M103.7,43.8c0-0.2-0.1-0.4,0-0.3
		C103.7,43.5,103.7,43.6,103.7,43.8z"/>
	<path d="M216.4,40c-4,0.5-8.2,2-10.9,5c-1.8,2-2,3.6-1.7,5c0.1,0.6,0.5,1.8,1.4,2.3c1.1,0.7,2.8,0.7,2.8,0.7
		c-0.6,0.6-22.7,17.8-32.3,25.3l0,1.1c3.1-2.2,36.3-27.3,38.4-28.9c2.5-1.9,6.4-5.2,6.4-5.2c0.3-0.3,1.6-2.8-0.2-4.6
		C219.2,39.8,217.1,39.9,216.4,40z M217.6,43.7c-1.2,1.1-2.3,1.4-3,2.4c-0.5,1.2-4.1,4.4-6.3,4.4c-2.3,0-1.8-2.7-1.1-3.4
		c3.7-4.4,8.1-4.6,9.7-4.7C217.4,42.3,218.5,43,217.6,43.7z"/>
	<path d="M260,36.4c0,1.1-0.9,2.1-2.1,2.1c-1.1,0-2.1-0.9-2.1-2.1c0-1.1,0.9-2.1,2.1-2.1C259.1,34.3,260,35.2,260,36.4z"/>
</g>
</svg>
